<svg width="96" height="96" viewBox="0 0 96 96" fill="none" xmlns="http://www.w3.org/2000/svg">
<path d="M20.4599 54.18C21.0697 58.8892 22.7829 63.388 25.4599 67.31C26.4663 68.7248 27.6011 70.0438 28.8499 71.25C30.9262 73.5187 33.3747 75.416 36.0899 76.86C38.8814 78.336 41.8939 79.3492 45.0099 79.86C47.8424 80.3169 50.7182 80.4444 53.5799 80.24C55.4099 80.13 57.2499 79.89 59.0899 79.64C60.9299 79.39 62.8199 79.31 64.7099 79.13C65.8799 79.05 65.8299 79.47 64.9799 80.23C63.635 81.4351 62.0742 82.375 60.3799 83C56.4637 84.042 52.4323 84.5896 48.3799 84.63C46.3022 84.6336 44.2301 84.4124 42.1999 83.97C41.1855 83.7606 40.1839 83.4935 39.1999 83.17L37.6999 82.67C37.2099 82.48 36.6999 82.25 36.2499 82.04C31.6499 80.04 27.0099 77.27 23.6899 73.34C20.0145 69.0796 17.412 64.0015 16.0999 58.53L15.9299 57.92L15.8299 57.29L15.6199 56C15.4503 55.1678 15.3301 54.3264 15.2599 53.48C15.1001 51.7984 15.05 50.1081 15.1099 48.42C15.298 43.3321 16.42 38.3221 18.4199 33.64L18.9999 32.31L19.6299 31L20.2799 29.69L20.5999 29L20.9799 28.38C21.4999 27.55 21.9799 26.7 22.5399 25.89C23.0999 25.08 23.7999 24.38 24.4399 23.63C24.9963 22.9686 25.6086 22.3564 26.2699 21.8C26.7762 21.3406 27.3106 20.9131 27.8699 20.52C28.2967 20.3069 28.7418 20.1328 29.1999 20C29.7766 19.7849 30.4064 19.7569 30.9999 19.92C31.2191 19.9567 31.4337 20.0171 31.6399 20.1C31.9099 20.24 31.8499 20.6 31.5699 21.1C31.1718 21.8628 30.6924 22.5803 30.1399 23.24C26.132 28.1779 23.1718 33.8805 21.4399 40C20.16 44.5934 19.8702 49.4062 20.5899 54.12L20.4599 54.18Z" fill="white"/>
<path d="M42.4599 37.53C42.1933 41.2496 43.0503 44.9634 44.9199 48.19C45.6513 49.3393 46.5138 50.3997 47.4899 51.35C49.1823 53.1499 51.1585 54.6599 53.3399 55.82C55.6112 57.0184 58.0583 57.8487 60.5899 58.28C62.8773 58.6448 65.2064 58.6651 67.4999 58.34C70.4999 57.98 73.3199 57.26 76.2899 56.61C77.2299 56.42 77.4099 57.11 76.9299 58.15C76.2121 59.6043 74.984 60.7434 73.4799 61.35C72.6799 61.66 71.8699 61.95 71.0399 62.18C70.2178 62.4418 69.3793 62.6489 68.5299 62.8C67.6799 62.94 66.8099 63 65.9499 63.08C65.0899 63.16 64.2099 63.16 63.3399 63.08C59.8274 63.0064 56.3655 62.2276 53.1599 60.79C51.21 59.9206 49.3222 58.9183 47.5099 57.79C45.6735 56.6099 44.0251 55.1604 42.6199 53.49C39.5834 49.8034 37.7819 45.2559 37.4699 40.49C37.289 37.6543 37.5248 34.8073 38.1699 32.04C38.6249 29.9273 39.3863 27.8925 40.4299 26C41.4945 24.1375 42.7732 22.4057 44.2399 20.84C44.7699 20.2 45.3799 19.66 45.9499 19.05C46.5199 18.44 47.1299 17.91 47.7699 17.41C49.0174 16.3303 50.3557 15.36 51.7699 14.51C52.4058 14.1378 53.0754 13.8264 53.7699 13.58C54.3077 13.3754 54.8634 13.2214 55.4299 13.12C55.8345 13.0627 56.2452 13.0627 56.6499 13.12C57.2438 13.2215 57.7844 13.5253 58.1799 13.98C58.3638 14.157 58.5343 14.3476 58.6899 14.55C59.0999 15.2 58.2599 16.12 56.8899 17.34C56.3399 17.67 55.8199 18.09 55.2999 18.46C55.0399 18.65 54.7899 18.86 54.5399 19.06C54.2899 19.26 53.9999 19.38 53.7499 19.57C52.6999 20.26 51.6799 20.98 50.7499 21.76C48.8049 23.2535 47.1162 25.0537 45.7499 27.09C44.777 28.5857 44.0385 30.2212 43.5599 31.94C43.062 33.7653 42.7669 35.64 42.6799 37.53H42.4599Z" fill="white"/>
<path d="M19.2899 45.42C18.9624 47.1458 18.7685 48.8944 18.7099 50.65C18.6661 52.395 18.7631 54.1406 18.9999 55.87C19.5596 59.337 20.742 62.6741 22.4899 65.72C22.7718 66.2901 23.1066 66.8325 23.4899 67.34L24.6499 68.89C25.5399 69.82 26.3399 70.89 27.3099 71.7C28.9638 73.3136 30.7994 74.7298 32.7799 75.92C34.8169 77.1044 36.9719 78.073 39.2099 78.81C43.7978 80.3115 48.637 80.8926 53.4499 80.52C54.5297 80.4615 55.605 80.338 56.6699 80.15C57.7361 79.9965 58.7915 79.7761 59.8299 79.49C61.9013 78.9373 63.9115 78.1768 65.8299 77.22C70.7599 74.79 74.9899 71.05 79.4199 67.48C80.8099 66.36 81.1599 67.06 80.6199 68.68C79.667 71.1952 78.1197 73.4425 76.1099 75.23C73.8129 77.3135 71.3062 79.1533 68.6299 80.72C65.8797 82.3124 62.9117 83.4949 59.8199 84.23L58.6599 84.5L57.4999 84.71C56.7299 84.83 55.9599 84.99 55.1799 85.09C53.6232 85.2749 52.0575 85.3751 50.4899 85.39C48.9176 85.4166 47.345 85.3531 45.7799 85.2C44.9999 85.12 44.2199 84.98 43.4399 84.87L42.2799 84.68L41.1299 84.41C37.377 83.5742 33.7377 82.2917 30.2899 80.59C26.7985 78.8072 23.6527 76.4165 20.9999 73.53C18.0854 70.3297 15.8202 66.5939 14.3299 62.53C13.603 60.5039 13.0804 58.4101 12.7699 56.28C12.4456 54.173 12.3151 52.0408 12.3799 49.91C12.5639 44.7334 13.6889 39.6336 15.6999 34.86C18.5876 27.5426 23.5861 21.2491 30.0599 16.78C32.5933 15.0976 35.3152 13.7182 38.1699 12.67C41.0299 11.6937 43.9927 11.0494 46.9999 10.75C48.3299 10.59 49.6199 10.55 50.9999 10.51C55.9399 10.68 57.3999 11.51 58.1199 13.39C58.3124 13.7971 58.4632 14.2226 58.5699 14.66C58.6699 15.35 58.1999 15.9 57.3099 16.28C56.7909 16.491 56.2461 16.6322 55.6899 16.7C55.0499 16.79 54.3299 16.83 53.5199 16.9C48.8478 16.9798 44.2175 17.7966 39.7999 19.32C37.7032 20.1136 35.6928 21.1188 33.7999 22.32C31.9084 23.5573 30.1755 25.0215 28.6399 26.68C26.2649 29.2614 24.2897 32.1838 22.7799 35.35C21.9858 36.9628 21.3172 38.6345 20.7799 40.35C20.2165 42.0339 19.7852 43.7591 19.4899 45.51L19.2899 45.42Z" fill="white"/>
</svg>
